<svg width="32" height="32" viewBox="0 0 32 32" fill="none" xmlns="http://www.w3.org/2000/svg">
  <defs>
    <linearGradient id="gradient" x1="0%" y1="0%" x2="100%" y2="100%">
      <stop offset="0%" style="stop-color:#3b82f6;stop-opacity:1" />
      <stop offset="100%" style="stop-color:#8b5cf6;stop-opacity:1" />
    </linearGradient>
  </defs>
  
  <!-- Background circle -->
  <circle cx="16" cy="16" r="15" fill="url(#gradient)" stroke="white" stroke-width="2"/>
  
  <!-- Light bulb icon representing ideas -->
  <g transform="translate(8, 6)">
    <!-- Bulb body -->
    <path d="M8 2C5.79 2 4 3.79 4 6c0 1.5 0.8 2.8 2 3.5V12c0 1.1 0.9 2 2 2s2-0.9 2-2V9.5c1.2-0.7 2-2 2-3.5 0-2.21-1.79-4-4-4z" 
          fill="white" opacity="0.9"/>
    
    <!-- Filament lines -->
    <line x1="6" y1="5" x2="10" y2="5" stroke="url(#gradient)" stroke-width="0.5" opacity="0.7"/>
    <line x1="6.5" y1="6.5" x2="9.5" y2="6.5" stroke="url(#gradient)" stroke-width="0.5" opacity="0.7"/>
    
    <!-- Base -->
    <rect x="6.5" y="14" width="3" height="1.5" rx="0.5" fill="white" opacity="0.8"/>
    <rect x="7" y="15.5" width="2" height="0.5" rx="0.25" fill="white" opacity="0.6"/>
  </g>
  
  <!-- Sparkle effects -->
  <circle cx="6" cy="8" r="1" fill="white" opacity="0.6"/>
  <circle cx="26" cy="12" r="0.8" fill="white" opacity="0.5"/>
  <circle cx="24" cy="24" r="1.2" fill="white" opacity="0.4"/>
</svg>
